<svg xmlns="http://www.w3.org/2000/svg" xmlns:xlink="http://www.w3.org/1999/xlink" width="92" zoomAndPan="magnify" viewBox="0 0 69 38.249999" height="51" preserveAspectRatio="xMidYMid meet" version="1.0"><defs><clipPath id="65fe52920c"><path d="M 0.664062 0 L 68.335938 0 L 68.335938 37.515625 L 0.664062 37.515625 Z M 0.664062 0 " clip-rule="nonzero"/></clipPath><clipPath id="039b9b15e5"><path d="M 0.664062 0 L 68.335938 0 L 68.335938 37.472656 L 0.664062 37.472656 Z M 0.664062 0 " clip-rule="nonzero"/></clipPath></defs><g clip-path="url(#65fe52920c)"><path fill="#ffffff" d="M 0.664062 0 L 68.335938 0 L 68.335938 44.871094 L 0.664062 44.871094 Z M 0.664062 0 " fill-opacity="1" fill-rule="nonzero"/><path fill="#ffffff" d="M 0.664062 0 L 68.335938 0 L 68.335938 37.515625 L 0.664062 37.515625 Z M 0.664062 0 " fill-opacity="1" fill-rule="nonzero"/><path fill="#ffffff" d="M 0.664062 0 L 68.335938 0 L 68.335938 37.515625 L 0.664062 37.515625 Z M 0.664062 0 " fill-opacity="1" fill-rule="nonzero"/></g><g clip-path="url(#039b9b15e5)"><path fill="#999999" d="M 10.453125 7.929688 C 10.628906 8.242188 10.847656 8.433594 11.117188 8.503906 C 11.445312 8.589844 11.859375 8.488281 12.308594 8.210938 C 13.871094 7.375 14.953125 5.738281 15.070312 4.039062 C 15.101562 2.921875 14.566406 2.347656 13.269531 2.125 C 12.179688 2.460938 10.988281 3.726562 10.429688 5.152344 C 10.007812 6.230469 10.015625 7.21875 10.453125 7.929688 M 18.3125 5.855469 C 17.257812 8.5625 14.296875 10.324219 11.300781 10.324219 C 10.511719 10.324219 9.71875 10.199219 8.957031 9.941406 C 7.839844 9.609375 7.050781 8.898438 6.679688 7.878906 C 6.226562 6.613281 6.484375 5.039062 7.355469 3.765625 C 8.898438 1.328125 11.503906 -0.128906 14.15625 -0.0351562 C 14.15625 -0.0351562 15.691406 -0.0117188 16.117188 0.46875 C 16.222656 0.59375 16.292969 1.035156 16.289062 1.203125 C 17.285156 1.492188 17.945312 1.867188 18.453125 2.703125 C 18.871094 3.609375 18.824219 4.726562 18.3125 5.855469 M 14.847656 26.171875 C 14.613281 21.5 14.398438 17.179688 13.816406 13.511719 C 13.6875 13.050781 13.164062 12 11 12.238281 C 10.152344 12.335938 9.554688 12.703125 9.164062 13.355469 C 7.605469 16.023438 6.355469 18.886719 5.238281 21.582031 C 3.21875 26.539062 1.757812 30.738281 0.691406 36.363281 C 0.625 36.691406 0.738281 36.945312 1.023438 37.109375 C 1.476562 37.351562 1.996094 37.472656 2.511719 37.472656 C 3.019531 37.472656 3.523438 37.355469 3.964844 37.125 L 4.015625 37.097656 L 4.222656 36.328125 C 6.019531 29.640625 7.574219 23.847656 10.757812 17.546875 C 11.070312 21.039062 11.203125 24.355469 11.34375 27.859375 C 11.398438 29.214844 11.457031 30.613281 11.523438 32.019531 C 11.554688 32.632812 11.566406 33.339844 11.578125 34.019531 C 11.585938 34.632812 11.597656 35.265625 11.621094 35.820312 C 11.636719 36.34375 11.902344 36.78125 12.371094 37.046875 C 13.003906 37.402344 13.933594 37.402344 14.578125 37.046875 C 15.355469 36.621094 15.289062 35.472656 15.15625 33.1875 C 15.125 32.644531 14.929688 27.859375 14.847656 26.171875 M 63.421875 18.082031 L 65.816406 15.550781 L 68.144531 15.550781 L 65.734375 18.152344 L 68.328125 22.796875 L 66 22.796875 L 64.117188 19.484375 L 63.421875 20.167969 L 63.421875 22.796875 L 61.316406 22.796875 L 61.316406 12.292969 L 63.421875 12.292969 Z M 57.84375 18.359375 C 57.84375 17.316406 57.46875 16.914062 56.785156 16.914062 C 56.183594 16.914062 55.585938 17.300781 55.585938 18.359375 Z M 53.339844 19.195312 C 53.339844 16.578125 54.945312 15.398438 56.894531 15.398438 C 59.097656 15.398438 60.019531 16.730469 60.019531 18.75 C 60.019531 18.984375 60.003906 19.445312 59.976562 19.695312 L 55.558594 19.695312 C 55.601562 20.890625 56.101562 21.335938 57.023438 21.335938 C 57.773438 21.335938 58.066406 20.917969 58.207031 20.308594 L 59.976562 20.738281 C 59.710938 22.085938 58.625 22.964844 56.894531 22.964844 C 54.207031 22.964844 53.339844 21.15625 53.339844 19.195312 M 55.835938 14.839844 L 54.429688 12.558594 L 55.851562 12.488281 L 56.867188 13.8125 L 57.925781 12.476562 L 59.308594 12.558594 L 57.84375 14.839844 Z M 48.042969 22.796875 L 45.480469 15.550781 L 47.75 15.550781 L 49.300781 20.78125 L 49.355469 20.78125 L 50.902344 15.550781 L 53.0625 15.550781 L 50.496094 22.796875 Z M 42.941406 19.125 C 42.941406 17.539062 42.511719 16.984375 41.574219 16.984375 C 40.628906 16.984375 40.097656 17.582031 40.097656 19.152344 C 40.097656 20.765625 40.503906 21.40625 41.535156 21.40625 C 42.453125 21.40625 42.941406 20.820312 42.941406 19.125 M 37.894531 19.207031 C 37.894531 16.886719 39.109375 15.398438 41.632812 15.398438 C 44.15625 15.398438 45.128906 16.914062 45.128906 19.054688 C 45.128906 21.417969 44.042969 22.964844 41.4375 22.964844 C 38.800781 22.964844 37.894531 21.378906 37.894531 19.207031 M 36.628906 22.796875 L 34.523438 22.796875 L 34.523438 12.292969 L 36.628906 12.292969 Z M 24.527344 17.875 C 24.527344 14.671875 26.226562 12.542969 29.394531 12.542969 C 31.652344 12.542969 33.253906 13.628906 33.367188 16.160156 L 31.398438 16.328125 C 31.273438 14.894531 30.660156 14.3125 29.363281 14.3125 C 27.71875 14.3125 26.742188 15.367188 26.742188 17.761719 C 26.742188 20.238281 27.621094 21.195312 29.210938 21.195312 C 30.660156 21.195312 31.164062 20.445312 31.398438 19.390625 L 33.335938 19.722656 C 33.015625 22.128906 30.996094 22.964844 29.183594 22.964844 C 25.835938 22.964844 24.527344 20.988281 24.527344 17.875 M 29.351562 11.027344 L 30.394531 10.011719 L 31.816406 10.109375 L 30.324219 12.085938 L 28.375 12.085938 L 26.953125 10.109375 L 28.347656 10.027344 Z M 62.5625 29.460938 L 60.457031 29.460938 L 60.457031 36.707031 L 62.5625 36.707031 Z M 62.785156 27.234375 C 62.785156 26.425781 62.3125 25.96875 61.515625 25.96875 C 60.707031 25.96875 60.246094 26.425781 60.246094 27.234375 C 60.246094 28.042969 60.707031 28.515625 61.515625 28.515625 C 62.3125 28.515625 62.785156 28.042969 62.785156 27.234375 M 58.882812 31.753906 C 58.882812 30.101562 58.183594 29.308594 56.582031 29.308594 C 55.589844 29.308594 54.796875 29.695312 54.265625 30.183594 L 54.15625 29.460938 L 52.289062 29.460938 L 52.289062 36.707031 L 54.390625 36.707031 L 54.390625 31.574219 C 54.671875 31.324219 55.242188 31.003906 55.816406 31.003906 C 56.46875 31.003906 56.777344 31.339844 56.777344 32.117188 L 56.777344 36.707031 L 58.882812 36.707031 Z M 47.898438 36.875 C 49.695312 36.875 51.101562 36.082031 51.101562 34.441406 C 51.101562 32.742188 49.75 32.464844 48.550781 32.242188 C 47.644531 32.074219 47.058594 31.964844 47.058594 31.394531 C 47.058594 30.992188 47.351562 30.699219 48.050781 30.699219 C 48.816406 30.699219 49.125 31.128906 49.289062 31.753906 L 50.976562 31.253906 C 50.628906 30.03125 49.722656 29.308594 48.078125 29.308594 C 46.445312 29.308594 45.050781 30.070312 45.050781 31.65625 C 45.050781 33.425781 46.515625 33.703125 47.671875 33.910156 C 48.511719 34.0625 49.066406 34.21875 49.066406 34.773438 C 49.066406 35.246094 48.675781 35.484375 47.964844 35.484375 C 46.976562 35.484375 46.683594 34.941406 46.515625 34.371094 L 44.816406 34.953125 C 45.050781 36.164062 46.042969 36.875 47.898438 36.875 M 43.714844 29.460938 L 41.609375 29.460938 L 41.609375 36.707031 L 43.714844 36.707031 Z M 44.832031 26.371094 L 42.585938 26.371094 L 41.539062 28.625 L 42.949219 28.75 Z M 40.371094 34.871094 C 40.089844 35.039062 39.589844 35.207031 39.171875 35.207031 C 38.5 35.207031 38.320312 34.871094 38.320312 34.230469 L 38.320312 30.992188 L 40.242188 30.992188 L 40.242188 29.460938 L 38.320312 29.460938 L 38.320312 27.039062 L 36.214844 27.316406 L 36.214844 29.460938 L 35.128906 29.460938 L 35.128906 30.992188 L 36.214844 30.992188 L 36.214844 34.523438 C 36.214844 36.179688 37.007812 36.875 38.527344 36.875 C 39.449219 36.875 40.300781 36.597656 40.660156 36.359375 Z M 29.734375 36.707031 L 32.296875 29.460938 L 30.136719 29.460938 L 28.589844 34.691406 L 28.535156 34.691406 L 26.988281 29.460938 L 24.714844 29.460938 L 27.28125 36.707031 Z M 29.734375 36.707031 " fill-opacity="1" fill-rule="nonzero"/></g></svg>