<?xml version="1.0" encoding="utf-8"?>
<!-- Generator: Adobe Illustrator 21.1.0, SVG Export Plug-In . SVG Version: 6.00 Build 0)  -->
<svg version="1.1" id="Vrstva_1" xmlns="http://www.w3.org/2000/svg" xmlns:xlink="http://www.w3.org/1999/xlink" x="0px" y="0px"
	 viewBox="0 0 94.2 63" style="enable-background:new 0 0 94.2 63;" xml:space="preserve">
<style type="text/css">
	.st0{opacity:0.5;}
	.st1{fill:#FFFFFF;}
	.st2{fill:none;stroke:#000000;stroke-width:0.25;stroke-miterlimit:10;}
</style>
<g class="st0">
	<path class="st1" d="M47.1,32.1"/>
</g>
<g class="st0">
	<rect x="0.1" y="0.1" class="st2" width="94" height="62.7"/>
	<path class="st2" d="M47.1,31.4"/>
</g>
<g class="st0">
	<polygon points="45.1,13.8 47.1,12.3 49.1,13.8 48.3,11.4 50.3,10 47.9,10 47.1,7.6 46.3,10 43.9,10 45.9,11.4 	"/>
	<polygon points="34.8,16.5 36.8,15.1 38.8,16.5 38.1,14.2 40.1,12.7 37.6,12.7 36.8,10.4 36.1,12.7 33.6,12.7 35.6,14.2 	"/>
	<polygon points="29.3,17.9 28.6,20.3 26.1,20.3 28.1,21.7 27.3,24 29.3,22.6 31.3,24 30.5,21.7 32.6,20.3 30.1,20.3 	"/>
	<polygon points="26.6,32.9 28.5,34.3 27.8,32 29.8,30.5 27.3,30.5 26.6,28.1 25.8,30.5 23.3,30.5 25.3,32 24.6,34.3 	"/>
	<polygon points="30.1,40.8 29.3,38.4 28.6,40.8 26.1,40.8 28.1,42.3 27.3,44.6 29.3,43.1 31.3,44.6 30.5,42.3 32.6,40.8 	"/>
	<polygon points="37.6,48.3 36.8,46 36.1,48.3 33.6,48.3 35.6,49.8 34.9,52.1 36.8,50.7 38.8,52.1 38.1,49.8 40.1,48.3 	"/>
	<polygon points="47.9,51.1 47.1,48.7 46.3,51.1 43.9,51.1 45.9,52.5 45.1,54.8 47.1,53.4 49.1,54.8 48.3,52.5 50.3,51.1 	"/>
	<polygon points="58.1,48.3 57.4,46 56.6,48.3 54.1,48.3 56.1,49.8 55.4,52.1 57.4,50.7 59.3,52.1 58.6,49.8 60.6,48.3 	"/>
	<polygon points="65.6,40.8 64.9,38.4 64.1,40.8 61.6,40.8 63.7,42.3 62.9,44.6 64.9,43.1 66.9,44.6 66.1,42.3 68.1,40.8 	"/>
	<polygon points="70.9,30.5 68.4,30.5 67.6,28.1 66.9,30.5 64.4,30.5 66.4,31.9 65.6,34.3 67.6,32.8 69.6,34.3 68.8,31.9 	"/>
	<polygon points="62.9,24 64.9,22.6 66.9,24 66.1,21.7 68.1,20.2 65.6,20.2 64.9,17.9 64.1,20.2 61.6,20.2 63.7,21.7 	"/>
	<polygon points="57.4,10.4 56.6,12.7 54.1,12.7 56.2,14.2 55.4,16.5 57.4,15.1 59.4,16.5 58.6,14.2 60.6,12.7 58.1,12.7 	"/>
</g>
</svg>
